<?xml version="1.0" standalone="no"?>
<!DOCTYPE svg PUBLIC "-//W3C//DTD SVG 20010904//EN"
 "http://www.w3.org/TR/2001/REC-SVG-20010904/DTD/svg10.dtd">
<svg version="1.0" xmlns="http://www.w3.org/2000/svg"
 width="1024.000000pt" height="1024.000000pt" viewBox="0 0 1024.000000 1024.000000"
 preserveAspectRatio="xMidYMid meet">
<metadata>
Created by potrace 1.11, written by Peter Selinger 2001-2013
</metadata>
<g transform="translate(0.000000,1024.000000) scale(0.100000,-0.100000)"
fill="#000000" stroke="none">
<path d="M2593 9630 c-12 -5 -27 -19 -33 -30 -9 -17 -12 -981 -12 -3859 0
-3615 1 -3840 17 -3872 10 -19 23 -41 30 -49 7 -8 26 -40 42 -70 44 -80 117
-204 123 -210 5 -5 11 -16 58 -99 14 -25 42 -73 62 -106 20 -33 48 -80 62
-105 14 -25 44 -75 67 -113 23 -37 55 -93 72 -125 17 -31 44 -79 59 -107 15
-27 68 -126 118 -220 49 -93 113 -213 140 -265 28 -52 54 -96 59 -97 4 -2 26
32 48 74 22 43 62 118 88 167 27 49 70 130 96 180 88 168 192 354 252 451 10
17 27 46 38 65 10 19 66 114 123 210 166 280 242 409 255 432 15 29 18 7670 2
7709 -6 15 -22 31 -35 38 -30 14 -1697 15 -1731 1z"/>
</g>
</svg>
